<svg width="1200" height="700" viewBox="0 0 1200 700" fill="none" xmlns="http://www.w3.org/2000/svg">
  <rect width="1200" height="700" fill="#0B0F14"/>
  <rect x="48" y="48" width="1104" height="604" rx="28" fill="#111827" stroke="#334155" stroke-width="2"/>
  <text x="86" y="110" fill="#F8FAFC" font-size="42" font-family="Arial, sans-serif" font-weight="700">Turbocharger Assembly</text>
  <text x="86" y="150" fill="#94A3B8" font-size="24" font-family="Arial, sans-serif">Demo illustration for P029900 lookup</text>

  <circle cx="395" cy="386" r="132" fill="#1F2937" stroke="#CBD5E1" stroke-width="12"/>
  <circle cx="395" cy="386" r="72" fill="#0F172A" stroke="#60A5FA" stroke-width="8"/>
  <path d="M395 314 L430 370 L360 370 Z" fill="#60A5FA"/>
  <path d="M467 385 C551 351 649 360 723 425" stroke="#CBD5E1" stroke-width="28" stroke-linecap="round"/>
  <path d="M722 426 C798 496 883 509 973 490" stroke="#F59E0B" stroke-width="22" stroke-linecap="round"/>
  <rect x="772" y="308" width="146" height="94" rx="18" fill="#1E293B" stroke="#E2E8F0" stroke-width="6"/>
  <rect x="796" y="330" width="94" height="52" rx="10" fill="#0F172A"/>
  <circle cx="947" cy="356" r="34" fill="#1E293B" stroke="#F97316" stroke-width="8"/>
  <path d="M945 325 L945 388" stroke="#F97316" stroke-width="8" stroke-linecap="round"/>
  <path d="M915 356 L976 356" stroke="#F97316" stroke-width="8" stroke-linecap="round"/>

  <path d="M263 442 C193 465 149 510 130 575" stroke="#475569" stroke-width="18" stroke-linecap="round"/>
  <path d="M239 259 C186 217 149 177 133 121" stroke="#475569" stroke-width="18" stroke-linecap="round"/>

  <line x1="947" y1="397" x2="1054" y2="265" stroke="#38BDF8" stroke-width="6" stroke-dasharray="12 12"/>
  <rect x="955" y="181" width="168" height="66" rx="14" fill="#082F49" stroke="#38BDF8" stroke-width="2"/>
  <text x="978" y="222" fill="#E0F2FE" font-size="24" font-family="Arial, sans-serif" font-weight="700">Wastegate actuator</text>

  <line x1="723" y1="426" x2="1036" y2="503" stroke="#F59E0B" stroke-width="6" stroke-dasharray="12 12"/>
  <rect x="930" y="515" width="193" height="76" rx="14" fill="#451A03" stroke="#F59E0B" stroke-width="2"/>
  <text x="954" y="548" fill="#FEF3C7" font-size="24" font-family="Arial, sans-serif" font-weight="700">Charge pipe outlet</text>
  <text x="954" y="578" fill="#FDE68A" font-size="20" font-family="Arial, sans-serif">Inspect for leaks / cracks</text>

  <line x1="395" y1="254" x2="198" y2="170" stroke="#60A5FA" stroke-width="6" stroke-dasharray="12 12"/>
  <rect x="72" y="120" width="210" height="82" rx="14" fill="#172554" stroke="#60A5FA" stroke-width="2"/>
  <text x="96" y="155" fill="#DBEAFE" font-size="24" font-family="Arial, sans-serif" font-weight="700">Compressor housing</text>
  <text x="96" y="186" fill="#BFDBFE" font-size="20" font-family="Arial, sans-serif">Main boost-generating unit</text>
</svg>
